<?xml version="1.0" encoding="UTF-8" standalone="no"?>
<!-- Generator: Adobe Illustrator 19.2.1, SVG Export Plug-In . SVG Version: 6.00 Build 0)  -->

<svg
   xmlns:dc="http://purl.org/dc/elements/1.1/"
   xmlns:cc="http://creativecommons.org/ns#"
   xmlns:rdf="http://www.w3.org/1999/02/22-rdf-syntax-ns#"
   xmlns:svg="http://www.w3.org/2000/svg"
   xmlns="http://www.w3.org/2000/svg"
   xmlns:sodipodi="http://sodipodi.sourceforge.net/DTD/sodipodi-0.dtd"
   xmlns:inkscape="http://www.inkscape.org/namespaces/inkscape"
   version="1.1"
   id="layer"
   x="0px"
   y="0px"
   viewBox="0 0 40.000001 60"
   xml:space="preserve"
   sodipodi:docname="victron-energy.svg"
   width="40"
   height="60"
   inkscape:version="0.92.1 r15371"
   inkscape:export-filename="C:\Users\Jesse\victron_energy.png"
   inkscape:export-xdpi="96"
   inkscape:export-ydpi="96"><metadata
     id="metadata4552"><rdf:RDF><cc:Work
         rdf:about=""><dc:format>image/svg+xml</dc:format><dc:type
           rdf:resource="http://purl.org/dc/dcmitype/StillImage" /><dc:title></dc:title></cc:Work></rdf:RDF></metadata><defs
     id="defs4550" /><sodipodi:namedview
     pagecolor="#ffffff"
     bordercolor="#666666"
     borderopacity="1"
     objecttolerance="10"
     gridtolerance="10"
     guidetolerance="10"
     inkscape:pageopacity="0"
     inkscape:pageshadow="2"
     inkscape:window-width="2560"
     inkscape:window-height="1377"
     id="namedview4548"
     showgrid="false"
     inkscape:zoom="3.7116564"
     inkscape:cx="153.65874"
     inkscape:cy="18.038093"
     inkscape:window-x="-8"
     inkscape:window-y="-8"
     inkscape:window-maximized="1"
     inkscape:current-layer="layer"
     inkscape:pagecheckerboard="true" /><style
     type="text/css"
     id="style4485">
	.st0{fill:#5AA5E1;}
</style><path
     class="st0"
     d="m 9.1492505,16.860178 c -1.701415,-0.516886 -3.5320513,-0.129221 -4.8673391,1.033771 0,0 -2.929018,1.981395 -3.46744055,10.20849 0,0 -0.15075828,1.378362 1.03377115,1.59373 0,0 1.24914,0.258443 1.3783614,-0.796865 0.1507583,-1.033771 0.1507583,-6.245701 2.4336695,-8.916276 0.215369,-0.27998 0.5168856,-0.495349 0.839939,-0.603033 0.4953487,-0.366127 0.9045498,-0.818402 1.2491402,-1.313751 0.3661272,-0.495349 0.839939,-0.90455 1.3783615,-1.184529"
     id="path4487"
     inkscape:connector-curvature="0"
     style="fill:#ffffff;fill-opacity:1;stroke-width:0.21536899" /><path
     class="st0"
     d="m 13.52124,16.666346 c -1.572193,-0.366127 -3.230534,0.04307 -4.4581372,1.098381 0,0 -2.735186,1.679879 -3.4243668,8.377853 -0.1076844,0.818403 -0.1507583,1.658342 -0.1076844,2.476744 0.064611,0.55996 0.5168855,1.012234 1.0983818,1.033771 0,0 1.2491401,0.107685 1.2922139,-1.033771 l 0.1076845,-1.593731 c 0,0 0.1938321,-4.458137 1.9813942,-6.697975 l 0.430738,0.34459 c 0.581496,-1.615266 1.658341,-3.015165 3.079776,-4.005862 z"
     id="path4489"
     inkscape:connector-curvature="0"
     style="fill:#ffffff;fill-opacity:1;stroke-width:0.21536899" /><path
     class="st0"
     d="m 17.936304,16.666346 c -1.809099,-0.344591 -3.682809,0.258443 -4.953486,1.59373 0,0 -2.08908,1.830636 -2.670576,6.439532 0,0 -0.258442,2.476744 -0.301516,3.661274 0,0.646106 0.452274,1.184529 1.098382,1.292213 0.646107,0.04307 1.206066,-0.452275 1.24914,-1.076845 0,0 0,0 0,0 v -0.06461 c 0,0 0.107684,-5.599594 2.175226,-8.184022 l 0.495349,0.301517 c 0.581496,-1.572193 1.593731,-2.929018 2.929019,-3.919715 v -0.04307 z"
     id="path4491"
     inkscape:connector-curvature="0"
     style="fill:#ffffff;fill-opacity:1;stroke-width:0.21536899" /><path
     class="st0"
     d="m 21.209914,16.623272 c -1.938321,0.06461 -3.68281,1.141455 -4.608897,2.821334 0,0 -1.981394,2.885944 -1.981394,8.722444 0,0 -0.107685,1.378361 0.990696,1.529119 0.667644,0.04307 1.227604,-0.452275 1.292214,-1.098381 0,-0.02154 0,-0.06461 0,-0.08615 V 28.31781 c 0,0 0.04307,-5.771889 2.282911,-8.140948 0,0 1.981395,2.325985 2.132153,7.882505 0,0 0.04307,3.812031 0.796866,5.90111 0.452275,-1.830636 0.689181,-3.704346 0.753792,-5.599593 0,-0.387665 0.150758,-0.753792 0.452275,-0.990698 0,0 0.344591,-0.150759 0.258442,-0.753791 0,0 -0.495348,-4.802729 -2.089079,-7.580989 0,0 3.424368,-0.258443 4.070474,6.590291 0,0.581496 0.193832,1.162993 0.538422,1.636804 0.301517,0.236906 0.452276,0.603034 0.452276,0.990698 0.06461,1.356824 0,2.713649 -0.193832,4.070474 -0.04307,0.559959 0.04307,1.119919 0.258443,1.636804 0.473811,-1.486046 0.710717,-3.05824 0.646106,-4.608897 0,0 -0.107684,-1.830636 0.796866,-2.476743 0,0 -0.04307,-5.211929 -2.132153,-8.033263 -1.162993,-1.464509 -2.907482,-2.282911 -4.716581,-2.2183 z"
     id="path4493"
     inkscape:connector-curvature="0"
     style="fill:#ffffff;fill-opacity:1;stroke-width:0.21536899" /><path
     class="st0"
     d="m 31.418404,40.055416 c 1.679878,0.538423 3.532051,0.150758 4.867339,-1.03377 0,0 2.929018,-1.981395 3.46744,-10.20849 0,0 0.150758,-1.378361 -1.033771,-1.59373 0,0 -1.24914,-0.258443 -1.378362,0.796865 -0.150758,1.033771 -0.150758,6.245701 -2.433668,8.916276 -0.21537,0.27998 -0.516887,0.495348 -0.83994,0.603033 -0.495349,0.366128 -0.904549,0.818401 -1.24914,1.335287 -0.387664,0.495349 -0.861476,0.90455 -1.399898,1.184529"
     id="path4495"
     inkscape:connector-curvature="0"
     style="fill:#ffffff;fill-opacity:1;stroke-width:0.21536899" /><path
     class="st0"
     d="m 27.00334,40.270785 c 1.572193,0.366127 3.230534,-0.04307 4.458138,-1.098381 0,0 2.735185,-1.679878 3.424366,-8.377853 0.107685,-0.818403 0.150759,-1.658341 0.107685,-2.476743 -0.04307,-0.581496 -0.516886,-1.033771 -1.098382,-1.033771 0,0 -1.24914,-0.107685 -1.292214,1.033771 l -0.107685,1.59373 c 0,0 -0.193832,4.458138 -1.981394,6.697975 l -0.452275,-0.34459 c -0.538422,1.615267 -1.615267,3.036702 -3.058239,4.005862 z"
     id="path4497"
     inkscape:connector-curvature="0"
     style="fill:#ffffff;fill-opacity:1;stroke-width:0.21536899" /><path
     class="st0"
     d="m 22.631349,40.270785 c 1.8091,0.344591 3.68281,-0.258443 4.953487,-1.59373 0,0 2.089079,-1.830636 2.670576,-6.439532 0,0 0.258442,-2.476743 0.301515,-3.661273 0,-0.646106 -0.452274,-1.184529 -1.098381,-1.292213 -0.646107,-0.04307 -1.206066,0.452275 -1.24914,1.076845 0,0 0,0 0,0 v 0.129221 c 0,0 -0.04307,5.599593 -2.175227,8.184021 L 25.53883,36.372607 c -0.581496,1.550657 -1.59373,2.907481 -2.929018,3.919715 z"
     id="path4499"
     inkscape:connector-curvature="0"
     style="fill:#ffffff;fill-opacity:1;stroke-width:0.21536899" /><path
     class="st0"
     d="m 19.314666,40.313859 c 1.938321,-0.06461 3.68281,-1.141455 4.608897,-2.821333 0,0 1.981394,-2.885944 1.981394,-8.722444 0,0 0.107685,-1.378361 -0.990696,-1.529119 -0.667644,-0.04307 -1.227604,0.452274 -1.292215,1.098381 0,0.02154 0,0.06461 0,0.08615 v 0.193832 c 0,0 -0.04307,5.793426 -2.282911,8.140948 0,0 -1.981395,-2.325985 -2.132153,-7.882505 0,0 -0.04307,-3.812031 -0.796866,-5.90111 -0.452274,1.830636 -0.68918,3.704346 -0.753791,5.599593 0,0.387665 -0.150758,0.753792 -0.452275,0.990698 0,0 -0.344591,0.150758 -0.258442,0.753791 0,0 0.495348,4.802729 2.089078,7.580989 0,0 -3.424367,0.258441 -4.070474,-6.590291 0,-0.581496 -0.193832,-1.162993 -0.538421,-1.636804 -0.301517,-0.236907 -0.452276,-0.603034 -0.452276,-0.990698 -0.06461,-1.356825 0,-2.713649 0.193832,-4.070474 0.02154,-0.559959 -0.06461,-1.119919 -0.258443,-1.636804 -0.495349,1.486046 -0.689181,3.05824 -0.603032,4.608897 0,0 0.107683,1.830636 -0.796866,2.476743 0,0 0.107685,5.211929 2.132153,8.033262 1.141456,1.442972 2.864408,2.282911 4.673507,2.2183 z"
     id="path4501"
     inkscape:connector-curvature="0"
     style="fill:#ffffff;fill-opacity:1;stroke-width:0.21536899" /></svg>